<svg width="228" height="76" viewBox="0 0 228 76" fill="none" xmlns="http://www.w3.org/2000/svg">
<path d="M48.5645 32.5195V44.8242H11.748V32.5195H48.5645ZM16.7773 3.90625V75H0.859375V3.90625H16.7773ZM59.5508 3.90625V75H43.6816V3.90625H59.5508ZM95.4883 75.9766C91.2891 75.9766 87.5293 75.3092 84.209 73.9746C80.8887 72.64 78.0729 70.8008 75.7617 68.457C73.4831 66.0807 71.7415 63.3464 70.5371 60.2539C69.3327 57.1615 68.7305 53.8574 68.7305 50.3418V48.4863C68.7305 44.5475 69.2839 40.918 70.3906 37.5977C71.4974 34.2773 73.1087 31.3965 75.2246 28.9551C77.373 26.4811 80.0098 24.5768 83.1348 23.2422C86.2598 21.875 89.8242 21.1914 93.8281 21.1914C97.5716 21.1914 100.908 21.8099 103.838 23.0469C106.768 24.2513 109.242 25.9928 111.26 28.2715C113.278 30.5176 114.808 33.2357 115.85 36.4258C116.924 39.5833 117.461 43.1315 117.461 47.0703V53.3203H74.8828V43.5059H102.52V42.334C102.52 40.4785 102.178 38.8509 101.494 37.4512C100.843 36.0514 99.8665 34.9772 98.5645 34.2285C97.2949 33.4473 95.6836 33.0566 93.7305 33.0566C91.875 33.0566 90.3288 33.4473 89.0918 34.2285C87.8548 35.0098 86.862 36.1165 86.1133 37.5488C85.3971 38.9486 84.8763 40.5924 84.5508 42.4805C84.2253 44.3359 84.0625 46.3379 84.0625 48.4863V50.3418C84.0625 52.3926 84.3392 54.2643 84.8926 55.957C85.446 57.6497 86.2598 59.0983 87.334 60.3027C88.4082 61.5072 89.7103 62.4512 91.2402 63.1348C92.7702 63.8184 94.5117 64.1602 96.4648 64.1602C98.8737 64.1602 101.169 63.7044 103.35 62.793C105.531 61.849 107.419 60.3841 109.014 58.3984L116.143 66.5527C115.068 68.1152 113.555 69.6289 111.602 71.0938C109.681 72.526 107.37 73.6979 104.668 74.6094C101.966 75.5208 98.9062 75.9766 95.4883 75.9766ZM140.947 0V75H125.664V0H140.947ZM167.998 0V75H152.715V0H167.998ZM176.787 49.1211V48.0957C176.787 44.222 177.34 40.6576 178.447 37.4023C179.554 34.1146 181.182 31.2663 183.33 28.8574C185.479 26.4486 188.115 24.5768 191.24 23.2422C194.365 21.875 197.946 21.1914 201.982 21.1914C206.084 21.1914 209.697 21.875 212.822 23.2422C215.98 24.5768 218.633 26.4486 220.781 28.8574C222.93 31.2663 224.557 34.1146 225.664 37.4023C226.771 40.6576 227.324 44.222 227.324 48.0957V49.1211C227.324 52.9622 226.771 56.5267 225.664 59.8145C224.557 63.0697 222.93 65.918 220.781 68.3594C218.633 70.7682 215.996 72.64 212.871 73.9746C209.746 75.3092 206.149 75.9766 202.08 75.9766C198.044 75.9766 194.447 75.3092 191.289 73.9746C188.132 72.64 185.479 70.7682 183.33 68.3594C181.182 65.918 179.554 63.0697 178.447 59.8145C177.34 56.5267 176.787 52.9622 176.787 49.1211ZM192.07 48.0957V49.1211C192.07 51.2044 192.233 53.1576 192.559 54.9805C192.917 56.8034 193.486 58.3984 194.268 59.7656C195.049 61.1328 196.074 62.207 197.344 62.9883C198.646 63.737 200.225 64.1113 202.08 64.1113C203.936 64.1113 205.498 63.737 206.768 62.9883C208.037 62.207 209.062 61.1328 209.844 59.7656C210.625 58.3984 211.178 56.8034 211.504 54.9805C211.862 53.1576 212.041 51.2044 212.041 49.1211V48.0957C212.041 46.0449 211.862 44.1243 211.504 42.334C211.178 40.5111 210.625 38.8997 209.844 37.5C209.062 36.1003 208.021 35.0098 206.719 34.2285C205.449 33.4473 203.87 33.0566 201.982 33.0566C200.16 33.0566 198.613 33.4473 197.344 34.2285C196.074 35.0098 195.049 36.1003 194.268 37.5C193.486 38.8997 192.917 40.5111 192.559 42.334C192.233 44.1243 192.07 46.0449 192.07 48.0957Z" fill="#F2B945"/>
<path d="M48.5645 32.5195H51.5645V29.5195H48.5645V32.5195ZM48.5645 44.8242V47.8242H51.5645V44.8242H48.5645ZM11.748 44.8242H8.74805V47.8242H11.748V44.8242ZM11.748 32.5195V29.5195H8.74805V32.5195H11.748ZM16.7773 3.90625H19.7773V0.90625H16.7773V3.90625ZM16.7773 75V78H19.7773V75H16.7773ZM0.859375 75H-2.14062V78H0.859375V75ZM0.859375 3.90625V0.90625H-2.14062V3.90625H0.859375ZM59.5508 3.90625H62.5508V0.90625H59.5508V3.90625ZM59.5508 75V78H62.5508V75H59.5508ZM43.6816 75H40.6816V78H43.6816V75ZM43.6816 3.90625V0.90625H40.6816V3.90625H43.6816ZM45.5645 32.5195V44.8242H51.5645V32.5195H45.5645ZM48.5645 41.8242H11.748V47.8242H48.5645V41.8242ZM14.748 44.8242V32.5195H8.74805V44.8242H14.748ZM11.748 35.5195H48.5645V29.5195H11.748V35.5195ZM13.7773 3.90625V75H19.7773V3.90625H13.7773ZM16.7773 72H0.859375V78H16.7773V72ZM3.85938 75V3.90625H-2.14062V75H3.85938ZM0.859375 6.90625H16.7773V0.90625H0.859375V6.90625ZM56.5508 3.90625V75H62.5508V3.90625H56.5508ZM59.5508 72H43.6816V78H59.5508V72ZM46.6816 75V3.90625H40.6816V75H46.6816ZM43.6816 6.90625H59.5508V0.90625H43.6816V6.90625ZM75.7617 68.457L73.5964 70.5334L73.6109 70.5485L73.6256 70.5635L75.7617 68.457ZM70.3906 37.5977L67.5446 36.649L70.3906 37.5977ZM75.2246 28.9551L72.9595 26.988L72.9575 26.9903L75.2246 28.9551ZM83.1348 23.2422L84.3131 26.0011L84.3252 25.9959L84.3372 25.9907L83.1348 23.2422ZM103.838 23.0469L102.671 25.8106L102.684 25.8161L102.697 25.8215L103.838 23.0469ZM111.26 28.2715L109.014 30.2606L109.021 30.2686L109.028 30.2766L111.26 28.2715ZM115.85 36.4258L112.998 37.357L113.004 37.3745L113.009 37.392L115.85 36.4258ZM117.461 53.3203V56.3203H120.461V53.3203H117.461ZM74.8828 53.3203H71.8828V56.3203H74.8828V53.3203ZM74.8828 43.5059V40.5059H71.8828V43.5059H74.8828ZM102.52 43.5059V46.5059H105.52V43.5059H102.52ZM101.494 37.4512L98.774 38.7164L98.786 38.7421L98.7984 38.7677L101.494 37.4512ZM98.5645 34.2285L96.9922 36.7835L97.0303 36.8069L97.069 36.8292L98.5645 34.2285ZM86.1133 37.5488L83.4546 36.1591L83.4485 36.1707L83.4425 36.1824L86.1133 37.5488ZM84.5508 42.4805L87.5057 42.9989L87.5072 42.9902L84.5508 42.4805ZM91.2402 63.1348L90.0164 65.8738L91.2402 63.1348ZM103.35 62.793L104.506 65.561L104.524 65.5537L104.541 65.5461L103.35 62.793ZM109.014 58.3984L111.272 56.4239L108.916 53.7292L106.675 56.5197L109.014 58.3984ZM116.143 66.5527L118.615 68.2523L119.935 66.3323L118.401 64.5782L116.143 66.5527ZM111.602 71.0938L113.395 73.4986L113.402 73.4938L111.602 71.0938ZM95.4883 72.9766C91.607 72.9766 88.2364 72.3602 85.3279 71.1911L83.0901 76.7582C86.8222 78.2583 90.9711 78.9766 95.4883 78.9766V72.9766ZM85.3279 71.1911C82.3559 69.9964 79.8956 68.3765 77.8978 66.3506L73.6256 70.5635C76.2502 73.2251 79.4215 75.2835 83.0901 76.7582L85.3279 71.1911ZM77.9271 66.3807C75.9236 64.2913 74.3951 61.8932 73.3326 59.1651L67.7416 61.3427C69.088 64.7995 71.0426 67.8702 73.5964 70.5334L77.9271 66.3807ZM73.3326 59.1651C72.2712 56.44 71.7305 53.5073 71.7305 50.3418H65.7305C65.7305 54.2075 66.3942 57.8829 67.7416 61.3427L73.3326 59.1651ZM71.7305 50.3418V48.4863H65.7305V50.3418H71.7305ZM71.7305 48.4863C71.7305 44.83 72.2438 41.525 73.2367 38.5463L67.5446 36.649C66.3239 40.3109 65.7305 44.265 65.7305 48.4863H71.7305ZM73.2367 38.5463C74.2294 35.5681 75.6544 33.0398 77.4917 30.9199L72.9575 26.9903C70.5631 29.7531 68.7654 32.9866 67.5446 36.649L73.2367 38.5463ZM77.4897 30.9221C79.3293 28.8038 81.5896 27.1642 84.3131 26.0011L81.9565 20.4833C78.4299 21.9894 75.4168 24.1584 72.9595 26.988L77.4897 30.9221ZM84.3372 25.9907C87.0229 24.8157 90.167 24.1914 93.8281 24.1914V18.1914C89.4814 18.1914 85.4966 18.9343 81.9323 20.4937L84.3372 25.9907ZM93.8281 24.1914C97.2407 24.1914 100.17 24.7546 102.671 25.8106L105.005 20.2831C101.646 18.8651 97.9025 18.1914 93.8281 18.1914V24.1914ZM102.697 25.8215C105.221 26.8592 107.312 28.3388 109.014 30.2606L113.506 26.2824C111.171 23.6469 108.314 21.6434 104.979 20.2722L102.697 25.8215ZM109.028 30.2766C110.738 32.1788 112.071 34.5197 112.998 37.357L118.701 35.4946C117.545 31.9516 115.818 28.8563 113.491 26.2664L109.028 30.2766ZM113.009 37.392C113.961 40.1879 114.461 43.4022 114.461 47.0703H120.461C120.461 42.8608 119.887 38.9787 118.69 35.4595L113.009 37.392ZM114.461 47.0703V53.3203H120.461V47.0703H114.461ZM117.461 50.3203H74.8828V56.3203H117.461V50.3203ZM77.8828 53.3203V43.5059H71.8828V53.3203H77.8828ZM74.8828 46.5059H102.52V40.5059H74.8828V46.5059ZM105.52 43.5059V42.334H99.5195V43.5059H105.52ZM105.52 42.334C105.52 40.1086 105.108 38.0155 104.19 36.1347L98.7984 38.7677C99.2471 39.6863 99.5195 40.8484 99.5195 42.334H105.52ZM104.214 36.186C103.31 34.2421 101.914 32.6938 100.06 31.6278L97.069 36.8292C97.8193 37.2606 98.376 37.8608 98.774 38.7164L104.214 36.186ZM100.137 31.6735C98.2689 30.5241 96.0703 30.0566 93.7305 30.0566V36.0566C95.2969 36.0566 96.3209 36.3704 96.9922 36.7835L100.137 31.6735ZM93.7305 30.0566C91.4587 30.0566 89.3195 30.5364 87.4898 31.692L90.6938 36.765C91.338 36.3581 92.2913 36.0566 93.7305 36.0566V30.0566ZM87.4898 31.692C85.76 32.7846 84.422 34.3084 83.4546 36.1591L88.772 38.9386C89.302 37.9246 89.9497 37.235 90.6938 36.765L87.4898 31.692ZM83.4425 36.1824C82.5622 37.903 81.9605 39.8471 81.5944 41.9707L87.5072 42.9902C87.7921 41.3378 88.232 39.9941 88.784 38.9153L83.4425 36.1824ZM81.5959 41.9621C81.2365 44.0106 81.0625 46.1878 81.0625 48.4863H87.0625C87.0625 46.488 87.214 44.6613 87.5057 42.9989L81.5959 41.9621ZM81.0625 48.4863V50.3418H87.0625V48.4863H81.0625ZM81.0625 50.3418C81.0625 52.6622 81.3757 54.8539 82.0411 56.8892L87.7441 55.0248C87.3027 53.6747 87.0625 52.123 87.0625 50.3418H81.0625ZM82.0411 56.8892C82.7097 58.9343 83.7181 60.7557 85.0951 62.2996L89.5729 58.3059C88.8014 57.4409 88.1822 56.3651 87.7441 55.0248L82.0411 56.8892ZM85.0951 62.2996C86.4623 63.8325 88.1147 65.0241 90.0164 65.8738L92.4641 60.3957C91.3059 59.8783 90.3541 59.1818 89.5729 58.3059L85.0951 62.2996ZM90.0164 65.8738C91.99 66.7556 94.1592 67.1602 96.4648 67.1602V61.1602C94.8643 61.1602 93.5504 60.8811 92.4641 60.3957L90.0164 65.8738ZM96.4648 67.1602C99.2631 67.1602 101.952 66.6285 104.506 65.561L102.193 60.025C100.385 60.7803 98.4843 61.1602 96.4648 61.1602V67.1602ZM104.541 65.5461C107.202 64.3945 109.474 62.6153 111.353 60.2772L106.675 56.5197C105.363 58.1529 103.859 59.3034 102.158 60.0398L104.541 65.5461ZM106.755 60.373L113.884 68.5273L118.401 64.5782L111.272 56.4239L106.755 60.373ZM113.67 64.8531C112.825 66.0827 111.565 67.3711 109.802 68.6937L113.402 73.4938C115.544 71.8867 117.312 70.1477 118.615 68.2523L113.67 64.8531ZM109.808 68.6889C108.184 69.9002 106.167 70.9377 103.709 71.7668L105.627 77.452C108.573 76.4581 111.178 75.1519 113.395 73.4986L109.808 68.6889ZM103.709 71.7668C101.371 72.5556 98.643 72.9766 95.4883 72.9766V78.9766C99.1695 78.9766 102.562 78.486 105.627 77.452L103.709 71.7668ZM140.947 0H143.947V-3H140.947V0ZM140.947 75V78H143.947V75H140.947ZM125.664 75H122.664V78H125.664V75ZM125.664 0V-3H122.664V0H125.664ZM137.947 0V75H143.947V0H137.947ZM140.947 72H125.664V78H140.947V72ZM128.664 75V0H122.664V75H128.664ZM125.664 3H140.947V-3H125.664V3ZM167.998 0H170.998V-3H167.998V0ZM167.998 75V78H170.998V75H167.998ZM152.715 75H149.715V78H152.715V75ZM152.715 0V-3H149.715V0H152.715ZM164.998 0V75H170.998V0H164.998ZM167.998 72H152.715V78H167.998V72ZM155.715 75V0H149.715V75H155.715ZM152.715 3H167.998V-3H152.715V3ZM178.447 37.4023L181.288 38.3681L181.29 38.3595L178.447 37.4023ZM191.24 23.2422L192.419 26.0011L192.431 25.9959L192.443 25.9907L191.24 23.2422ZM212.822 23.2422L211.62 25.9907L211.637 25.9982L211.654 26.0055L212.822 23.2422ZM225.664 37.4023L222.821 38.3595L222.824 38.3681L225.664 37.4023ZM225.664 59.8145L228.504 60.7802L228.507 60.7716L225.664 59.8145ZM220.781 68.3594L223.02 70.3562L223.027 70.3488L223.033 70.3413L220.781 68.3594ZM191.289 73.9746L190.121 76.7379L191.289 73.9746ZM183.33 68.3594L181.078 70.3413L181.085 70.3488L181.091 70.3562L183.33 68.3594ZM178.447 59.8145L175.604 60.7716L175.607 60.7802L178.447 59.8145ZM192.559 54.9805L189.605 55.5078L189.61 55.5333L189.615 55.5587L192.559 54.9805ZM197.344 62.9883L195.771 65.5433L195.81 65.5667L195.848 65.589L197.344 62.9883ZM206.768 62.9883L208.292 65.5724L208.316 65.558L208.34 65.5433L206.768 62.9883ZM211.504 54.9805L208.56 54.4022L208.555 54.4276L208.551 54.4531L211.504 54.9805ZM211.504 42.334L208.551 42.8614L208.556 42.8919L208.562 42.9223L211.504 42.334ZM206.719 34.2285L205.146 36.7835L205.161 36.7923L205.175 36.801L206.719 34.2285ZM192.559 42.334L189.615 41.7557L189.611 41.7765L189.607 41.7973L192.559 42.334ZM179.787 49.1211V48.0957H173.787V49.1211H179.787ZM179.787 48.0957C179.787 44.5094 180.299 41.2756 181.288 38.3681L175.607 36.4366C174.382 40.0395 173.787 43.9346 173.787 48.0957H179.787ZM181.29 38.3595C182.278 35.4265 183.71 32.9388 185.569 30.8543L181.091 26.8606C178.654 29.5937 176.83 32.8027 175.604 36.4452L181.29 38.3595ZM185.569 30.8543C187.409 28.7915 189.677 27.172 192.419 26.0011L190.062 20.4833C186.554 21.9816 183.548 24.1056 181.091 26.8606L185.569 30.8543ZM192.443 25.9907C195.126 24.8169 198.285 24.1914 201.982 24.1914V18.1914C197.607 18.1914 193.605 18.9331 190.038 20.4937L192.443 25.9907ZM201.982 24.1914C205.752 24.1914 208.943 24.8194 211.62 25.9907L214.025 20.4937C210.452 18.9306 206.416 18.1914 201.982 18.1914V24.1914ZM211.654 26.0055C214.428 27.1781 216.708 28.7975 218.542 30.8543L223.02 26.8606C220.558 24.0997 217.531 21.9756 213.99 20.4789L211.654 26.0055ZM218.542 30.8543C220.402 32.9388 221.833 35.4265 222.821 38.3595L228.507 36.4452C227.281 32.8027 225.458 29.5937 223.02 26.8606L218.542 30.8543ZM222.824 38.3681C223.812 41.2756 224.324 44.5094 224.324 48.0957H230.324C230.324 43.9346 229.729 40.0395 228.504 36.4366L222.824 38.3681ZM224.324 48.0957V49.1211H230.324V48.0957H224.324ZM224.324 49.1211C224.324 52.6715 223.813 55.9092 222.821 58.8573L228.507 60.7716C229.728 57.1442 230.324 53.253 230.324 49.1211H224.324ZM222.824 58.8487C221.837 61.7515 220.402 64.2495 218.529 66.3775L223.033 70.3413C225.458 67.5864 227.278 64.3878 228.504 60.7802L222.824 58.8487ZM218.542 66.3625C216.703 68.4252 214.434 70.0448 211.693 71.2157L214.049 76.7335C217.558 75.2352 220.563 73.1112 223.02 70.3562L218.542 66.3625ZM211.693 71.2157C209.006 72.3631 205.822 72.9766 202.08 72.9766V78.9766C206.476 78.9766 210.486 78.2554 214.049 76.7335L211.693 71.2157ZM202.08 72.9766C198.375 72.9766 195.185 72.3646 192.457 71.2113L190.121 76.7379C193.708 78.2539 197.713 78.9766 202.08 78.9766V72.9766ZM192.457 71.2113C189.683 70.0387 187.403 68.4193 185.569 66.3625L181.091 70.3562C183.554 73.1171 186.58 75.2412 190.121 76.7379L192.457 71.2113ZM185.582 66.3775C183.71 64.2495 182.275 61.7515 181.288 58.8487L175.607 60.7802C176.834 64.3878 178.654 67.5864 181.078 70.3413L185.582 66.3775ZM181.29 58.8573C180.298 55.9092 179.787 52.6715 179.787 49.1211H173.787C173.787 53.253 174.383 57.1442 175.604 60.7716L181.29 58.8573ZM189.07 48.0957V49.1211H195.07V48.0957H189.07ZM189.07 49.1211C189.07 51.3597 189.245 53.4909 189.605 55.5078L195.512 54.4531C195.221 52.8243 195.07 51.0492 195.07 49.1211H189.07ZM189.615 55.5587C190.025 57.6454 190.694 59.5582 191.663 61.254L196.872 58.2772C196.279 57.2386 195.809 55.9614 195.502 54.4022L189.615 55.5587ZM191.663 61.254C192.679 63.0322 194.05 64.4837 195.771 65.5433L198.916 60.4333C198.099 59.9304 197.419 59.2334 196.872 58.2772L191.663 61.254ZM195.848 65.589C197.701 66.6542 199.822 67.1113 202.08 67.1113V61.1113C200.627 61.1113 199.591 60.8197 198.839 60.3876L195.848 65.589ZM202.08 67.1113C204.335 67.1113 206.455 66.6554 208.292 65.5724L205.244 60.4042C204.541 60.8185 203.537 61.1113 202.08 61.1113V67.1113ZM208.34 65.5433C210.062 64.4837 211.432 63.0322 212.448 61.254L207.239 58.2772C206.693 59.2334 206.012 59.9304 205.195 60.4333L208.34 65.5433ZM212.448 61.254C213.427 59.5415 214.082 57.6106 214.457 55.5078L208.551 54.4531C208.275 55.9962 207.823 57.2554 207.239 58.2772L212.448 61.254ZM214.448 55.5587C214.847 53.524 215.041 51.3755 215.041 49.1211H209.041C209.041 51.0333 208.877 52.7911 208.56 54.4022L214.448 55.5587ZM215.041 49.1211V48.0957H209.041V49.1211H215.041ZM215.041 48.0957C215.041 45.8711 214.847 43.7517 214.446 41.7456L208.562 42.9223C208.877 44.497 209.041 46.2187 209.041 48.0957H215.041ZM214.457 41.8066C214.082 39.7057 213.43 37.7698 212.463 36.0379L207.224 38.9621C207.82 40.0297 208.275 41.3164 208.551 42.8614L214.457 41.8066ZM212.463 36.0379C211.441 34.2068 210.039 32.7222 208.262 31.656L205.175 36.801C206.002 37.2973 206.684 37.9937 207.224 38.9621L212.463 36.0379ZM208.291 31.6735C206.438 30.5331 204.279 30.0566 201.982 30.0566V36.0566C203.462 36.0566 204.461 36.3614 205.146 36.7835L208.291 31.6735ZM201.982 30.0566C199.728 30.0566 197.609 30.5426 195.771 31.6735L198.916 36.7835C199.617 36.3519 200.591 36.0566 201.982 36.0566V30.0566ZM195.771 31.6735C194.032 32.7437 192.66 34.2251 191.648 36.0379L196.887 38.9621C197.438 37.9754 198.116 37.2758 198.916 36.7835L195.771 31.6735ZM191.648 36.0379C190.691 37.7532 190.024 39.6712 189.615 41.7557L195.502 42.9122C195.809 41.351 196.282 40.0463 196.887 38.9621L191.648 36.0379ZM189.607 41.7973C189.246 43.7854 189.07 45.8872 189.07 48.0957H195.07C195.07 46.2026 195.221 44.4633 195.51 42.8706L189.607 41.7973Z" fill="black"/>
</svg>
