<svg width="1280" height="720" viewBox="0 0 1280 720" fill="none" xmlns="http://www.w3.org/2000/svg">
<circle cx="30" cy="140" r="5" fill="#FFDB93"/>
<circle cx="30" cy="60" r="5" fill="#FFDB93"/>
<circle cx="117" cy="65" r="5" fill="#FFDB93"/>
<circle cx="117" cy="145" r="5" fill="#FFDB93"/>
<circle cx="209" cy="145" r="5" fill="#FFDB93"/>
<circle cx="288" cy="145" r="5" fill="#FFDB93"/>
<circle cx="209" cy="65" r="5" fill="#FFDB93"/>
<circle cx="288" cy="65" r="5" fill="#FFDB93"/>
<circle cx="117" cy="65" r="5" fill="#FFDB93"/>
<circle cx="117" cy="145" r="5" fill="#FFDB93"/>
<circle cx="209" cy="145" r="5" fill="#FFDB93"/>
<circle cx="288" cy="145" r="5" fill="#FFDB93"/>
<circle cx="209" cy="65" r="5" fill="#FFDB93"/>
<circle cx="288" cy="65" r="5" fill="#FFDB93"/>
<circle cx="367" cy="65" r="5" fill="#FFDB93"/>
<circle cx="367" cy="145" r="5" fill="#FFDB93"/>
<circle cx="459" cy="145" r="5" fill="#FFDB93"/>
<circle cx="538" cy="145" r="5" fill="#FFDB93"/>
<circle cx="459" cy="65" r="5" fill="#FFDB93"/>
<circle cx="538" cy="65" r="5" fill="#FFDB93"/>
<circle cx="625" cy="70" r="5" fill="#FFDB93"/>
<circle cx="625" cy="150" r="5" fill="#FFDB93"/>
<circle cx="717" cy="150" r="5" fill="#FFDB93"/>
<circle cx="796" cy="150" r="5" fill="#FFDB93"/>
<circle cx="717" cy="70" r="5" fill="#FFDB93"/>
<circle cx="796" cy="70" r="5" fill="#FFDB93"/>
<circle cx="625" cy="70" r="5" fill="#FFDB93"/>
<circle cx="625" cy="150" r="5" fill="#FFDB93"/>
<circle cx="717" cy="150" r="5" fill="#FFDB93"/>
<circle cx="796" cy="150" r="5" fill="#FFDB93"/>
<circle cx="717" cy="70" r="5" fill="#FFDB93"/>
<circle cx="796" cy="70" r="5" fill="#FFDB93"/>
<circle cx="875" cy="70" r="5" fill="#FFDB93"/>
<circle cx="875" cy="150" r="5" fill="#FFDB93"/>
<circle cx="967" cy="150" r="5" fill="#FFDB93"/>
<circle cx="1046" cy="150" r="5" fill="#FFDB93"/>
<circle cx="967" cy="70" r="5" fill="#FFDB93"/>
<circle cx="1046" cy="70" r="5" fill="#FFDB93"/>
<circle cx="1133" cy="75" r="5" fill="#FFDB93"/>
<circle cx="1133" cy="155" r="5" fill="#FFDB93"/>
<circle cx="1225" cy="155" r="5" fill="#FFDB93"/>
<circle cx="1225" cy="75" r="5" fill="#FFDB93"/>
<circle cx="1133" cy="75" r="5" fill="#FFDB93"/>
<circle cx="1133" cy="155" r="5" fill="#FFDB93"/>
<circle cx="1225" cy="155" r="5" fill="#FFDB93"/>
<circle cx="1225" cy="75" r="5" fill="#FFDB93"/>
<circle cx="30" cy="302" r="5" fill="#FFDB93"/>
<circle cx="30" cy="222" r="5" fill="#FFDB93"/>
<circle cx="30" cy="470" r="5" fill="#FFDB93"/>
<circle cx="30" cy="390" r="5" fill="#FFDB93"/>
<circle cx="117" cy="227" r="5" fill="#FFDB93"/>
<circle cx="117" cy="307" r="5" fill="#FFDB93"/>
<circle cx="209" cy="307" r="5" fill="#FFDB93"/>
<circle cx="288" cy="307" r="5" fill="#FFDB93"/>
<circle cx="209" cy="227" r="5" fill="#FFDB93"/>
<circle cx="288" cy="227" r="5" fill="#FFDB93"/>
<circle cx="117" cy="395" r="5" fill="#FFDB93"/>
<circle cx="117" cy="475" r="5" fill="#FFDB93"/>
<circle cx="209" cy="475" r="5" fill="#FFDB93"/>
<circle cx="288" cy="475" r="5" fill="#FFDB93"/>
<circle cx="209" cy="395" r="5" fill="#FFDB93"/>
<circle cx="288" cy="395" r="5" fill="#FFDB93"/>
<circle cx="117" cy="227" r="5" fill="#FFDB93"/>
<circle cx="117" cy="307" r="5" fill="#FFDB93"/>
<circle cx="209" cy="307" r="5" fill="#FFDB93"/>
<circle cx="288" cy="307" r="5" fill="#FFDB93"/>
<circle cx="209" cy="227" r="5" fill="#FFDB93"/>
<circle cx="288" cy="227" r="5" fill="#FFDB93"/>
<circle cx="117" cy="395" r="5" fill="#FFDB93"/>
<circle cx="117" cy="475" r="5" fill="#FFDB93"/>
<circle cx="209" cy="475" r="5" fill="#FFDB93"/>
<circle cx="288" cy="475" r="5" fill="#FFDB93"/>
<circle cx="209" cy="395" r="5" fill="#FFDB93"/>
<circle cx="288" cy="395" r="5" fill="#FFDB93"/>
<circle cx="367" cy="227" r="5" fill="#FFDB93"/>
<circle cx="367" cy="307" r="5" fill="#FFDB93"/>
<circle cx="459" cy="307" r="5" fill="#FFDB93"/>
<circle cx="538" cy="307" r="5" fill="#FFDB93"/>
<circle cx="459" cy="227" r="5" fill="#FFDB93"/>
<circle cx="538" cy="227" r="5" fill="#FFDB93"/>
<circle cx="367" cy="395" r="5" fill="#FFDB93"/>
<circle cx="367" cy="475" r="5" fill="#FFDB93"/>
<circle cx="459" cy="475" r="5" fill="#FFDB93"/>
<circle cx="538" cy="475" r="5" fill="#FFDB93"/>
<circle cx="459" cy="395" r="5" fill="#FFDB93"/>
<circle cx="538" cy="395" r="5" fill="#FFDB93"/>
<circle cx="625" cy="232" r="5" fill="#FFDB93"/>
<circle cx="625" cy="312" r="5" fill="#FFDB93"/>
<circle cx="717" cy="312" r="5" fill="#FFDB93"/>
<circle cx="796" cy="312" r="5" fill="#FFDB93"/>
<circle cx="717" cy="232" r="5" fill="#FFDB93"/>
<circle cx="796" cy="232" r="5" fill="#FFDB93"/>
<circle cx="625" cy="400" r="5" fill="#FFDB93"/>
<circle cx="625" cy="480" r="5" fill="#FFDB93"/>
<circle cx="717" cy="480" r="5" fill="#FFDB93"/>
<circle cx="796" cy="480" r="5" fill="#FFDB93"/>
<circle cx="717" cy="400" r="5" fill="#FFDB93"/>
<circle cx="796" cy="400" r="5" fill="#FFDB93"/>
<circle cx="625" cy="232" r="5" fill="#FFDB93"/>
<circle cx="625" cy="312" r="5" fill="#FFDB93"/>
<circle cx="717" cy="312" r="5" fill="#FFDB93"/>
<circle cx="796" cy="312" r="5" fill="#FFDB93"/>
<circle cx="717" cy="232" r="5" fill="#FFDB93"/>
<circle cx="796" cy="232" r="5" fill="#FFDB93"/>
<circle cx="625" cy="400" r="5" fill="#FFDB93"/>
<circle cx="625" cy="480" r="5" fill="#FFDB93"/>
<circle cx="717" cy="480" r="5" fill="#FFDB93"/>
<circle cx="796" cy="480" r="5" fill="#FFDB93"/>
<circle cx="717" cy="400" r="5" fill="#FFDB93"/>
<circle cx="796" cy="400" r="5" fill="#FFDB93"/>
<circle cx="875" cy="232" r="5" fill="#FFDB93"/>
<circle cx="875" cy="312" r="5" fill="#FFDB93"/>
<circle cx="967" cy="312" r="5" fill="#FFDB93"/>
<circle cx="1046" cy="312" r="5" fill="#FFDB93"/>
<circle cx="967" cy="232" r="5" fill="#FFDB93"/>
<circle cx="1046" cy="232" r="5" fill="#FFDB93"/>
<circle cx="875" cy="400" r="5" fill="#FFDB93"/>
<circle cx="875" cy="480" r="5" fill="#FFDB93"/>
<circle cx="967" cy="480" r="5" fill="#FFDB93"/>
<circle cx="1046" cy="480" r="5" fill="#FFDB93"/>
<circle cx="967" cy="400" r="5" fill="#FFDB93"/>
<circle cx="1046" cy="400" r="5" fill="#FFDB93"/>
<circle cx="1133" cy="237" r="5" fill="#FFDB93"/>
<circle cx="1133" cy="317" r="5" fill="#FFDB93"/>
<circle cx="1225" cy="317" r="5" fill="#FFDB93"/>
<circle cx="1225" cy="237" r="5" fill="#FFDB93"/>
<circle cx="1133" cy="405" r="5" fill="#FFDB93"/>
<circle cx="1133" cy="485" r="5" fill="#FFDB93"/>
<circle cx="1225" cy="485" r="5" fill="#FFDB93"/>
<circle cx="1225" cy="405" r="5" fill="#FFDB93"/>
<circle cx="1133" cy="237" r="5" fill="#FFDB93"/>
<circle cx="1133" cy="317" r="5" fill="#FFDB93"/>
<circle cx="1225" cy="317" r="5" fill="#FFDB93"/>
<circle cx="1225" cy="237" r="5" fill="#FFDB93"/>
<circle cx="1133" cy="405" r="5" fill="#FFDB93"/>
<circle cx="1133" cy="485" r="5" fill="#FFDB93"/>
<circle cx="1225" cy="485" r="5" fill="#FFDB93"/>
<circle cx="1225" cy="405" r="5" fill="#FFDB93"/>
<circle cx="30" cy="643" r="5" fill="#FFDB93"/>
<circle cx="30" cy="563" r="5" fill="#FFDB93"/>
<circle cx="117" cy="568" r="5" fill="#FFDB93"/>
<circle cx="117" cy="648" r="5" fill="#FFDB93"/>
<circle cx="209" cy="648" r="5" fill="#FFDB93"/>
<circle cx="288" cy="648" r="5" fill="#FFDB93"/>
<circle cx="209" cy="568" r="5" fill="#FFDB93"/>
<circle cx="288" cy="568" r="5" fill="#FFDB93"/>
<circle cx="117" cy="568" r="5" fill="#FFDB93"/>
<circle cx="117" cy="648" r="5" fill="#FFDB93"/>
<circle cx="209" cy="648" r="5" fill="#FFDB93"/>
<circle cx="288" cy="648" r="5" fill="#FFDB93"/>
<circle cx="209" cy="568" r="5" fill="#FFDB93"/>
<circle cx="288" cy="568" r="5" fill="#FFDB93"/>
<circle cx="367" cy="568" r="5" fill="#FFDB93"/>
<circle cx="367" cy="648" r="5" fill="#FFDB93"/>
<circle cx="459" cy="648" r="5" fill="#FFDB93"/>
<circle cx="538" cy="648" r="5" fill="#FFDB93"/>
<circle cx="459" cy="568" r="5" fill="#FFDB93"/>
<circle cx="538" cy="568" r="5" fill="#FFDB93"/>
<circle cx="625" cy="573" r="5" fill="#FFDB93"/>
<circle cx="625" cy="653" r="5" fill="#FFDB93"/>
<circle cx="717" cy="653" r="5" fill="#FFDB93"/>
<circle cx="796" cy="653" r="5" fill="#FFDB93"/>
<circle cx="717" cy="573" r="5" fill="#FFDB93"/>
<circle cx="796" cy="573" r="5" fill="#FFDB93"/>
<circle cx="625" cy="573" r="5" fill="#FFDB93"/>
<circle cx="625" cy="653" r="5" fill="#FFDB93"/>
<circle cx="717" cy="653" r="5" fill="#FFDB93"/>
<circle cx="796" cy="653" r="5" fill="#FFDB93"/>
<circle cx="717" cy="573" r="5" fill="#FFDB93"/>
<circle cx="796" cy="573" r="5" fill="#FFDB93"/>
<circle cx="875" cy="573" r="5" fill="#FFDB93"/>
<circle cx="875" cy="653" r="5" fill="#FFDB93"/>
<circle cx="967" cy="653" r="5" fill="#FFDB93"/>
<circle cx="1046" cy="653" r="5" fill="#FFDB93"/>
<circle cx="967" cy="573" r="5" fill="#FFDB93"/>
<circle cx="1046" cy="573" r="5" fill="#FFDB93"/>
<circle cx="1133" cy="578" r="5" fill="#FFDB93"/>
<circle cx="1133" cy="658" r="5" fill="#FFDB93"/>
<circle cx="1225" cy="658" r="5" fill="#FFDB93"/>
<circle cx="1225" cy="578" r="5" fill="#FFDB93"/>
<circle cx="1133" cy="578" r="5" fill="#FFDB93"/>
<circle cx="1133" cy="658" r="5" fill="#FFDB93"/>
<circle cx="1225" cy="658" r="5" fill="#FFDB93"/>
<circle cx="1225" cy="578" r="5" fill="#FFDB93"/>
</svg>
